<?xml version="1.0" encoding="UTF-8" standalone="no"?>
<!-- Created with Inkscape (http://www.inkscape.org/) -->

<svg
   width="200"
   height="200"
   viewBox="7.5 16.5 207.5 216.5"
   version="1.1"
   xmlns="http://www.w3.org/2000/svg"
   xmlns:svg="http://www.w3.org/2000/svg">
     <g
     id="layer1">
       <circle style="fill:#ffffff" r="103" cx="110" cy="125"/>
       <path id="sian"
       style="fill:#515"
       d="m 74.430373,211.82681 
       c -0.72189,-0.15201 -2.2697,-0.65657 -3.43959,-1.12125 -2.12706,-0.84486 -2.12706,-0.84486 -2.12706,-3.76139 0,-2.85438 0.42542,-3.87441 0.81176,-1.94638 0.30393,1.51676 2.17684,3.82977 3.93573,4.86055 5.26726,3.08682 11.46901,-0.27934 10.07213,-5.46692 -0.52631,-1.95458 -2.2214,-3.24885 -7.2098,-5.50496 -2.31453,-1.04679 -4.64877,-2.32532 -5.1872,-2.84117 -3.88833,-3.72526 -2.08823,-10.25029 3.2502,-11.78133 2.60473,-0.74703 7.93894,-0.18067 9.8367,1.04441 0.57051,0.36829 1.0306,5.31768 0.49348,5.30855 -0.16741,-0.003 -0.70126,-0.8293 -1.18633,-1.83655 -1.74228,-3.61788 -5.60447,-5.09167 -9.01567,-3.44034 -1.29448,0.62665 -1.80098,1.1337 -2.33232,2.33489 -1.35846,3.07103 -0.10675,5.30735 4.00729,7.15946 1.41801,0.63838 3.65449,1.64432 4.96995,2.23543 4.22383,1.89801 6.04338,4.88311 5.21976,8.56342 -0.79477,3.55139 -4.13245,6.02972 -8.51061,6.31939 -1.25175,0.0828 -2.86654,0.0262 -3.58842,-0.12581 z
       m 73.048097,-5.21813 
       c -10.41745,-12.39102 -15.26645,-18.01402 -16.60005,-19.24978 -1.42766,-1.32292 -1.42766,-1.32292 1.01178,-1.32292 2.43944,0 2.43944,0 5.42301,3.61598 1.64096,1.98878 5.36582,6.39123 8.27745,9.78321 4.59843,5.35706 5.31065,6.05223 5.42144,5.29167 0.28067,-1.92662 -0.22481,-15.03604 -0.61867,-16.04502 -0.22722,-0.58209 -0.84467,-1.41474 -1.37211,-1.85033 -0.95899,-0.792 -0.95899,-0.792 1.77504,-0.79375 1.50371,-9.7e-4 2.73403,0.0832 2.73403,0.18704 0,0.10384 -0.25795,0.58248 -0.57322,1.06364 -0.84478,1.2893 -1.29862,8.87031 -1.03906,17.35659 0.12018,3.92906 0.15031,7.14375 0.067,7.14375 -0.0834,0 -2.11133,-2.33103 -4.50659,-5.18008 z
       m -54.965307,3.82639 
       c 0.63813,-0.86311 0.78349,-1.76916 1.0558,-6.58095 0.30524,-5.39344 0.89938,-9.35147 1.40376,-9.35147 0.13417,0 0.51083,2.81781 0.83702,6.26181 0.32619,3.44399 0.65439,6.87272 0.72933,7.61939 0.0775,0.77233 0.4794,1.72286 0.93223,2.20486 0.79596,0.84727 0.79596,0.84727 -2.45109,0.84727 -3.24706,0 -3.24706,0 -2.50705,-1.00091 z
       m 10.539547,-0.34074 
       c 1.48946,-1.41688 2.0072,-2.42314 6.72284,-13.06623 1.57676,-3.55871 2.99979,-6.73371 3.16229,-7.05555 0.1625,-0.32185 0.65988,-1.42223 1.10529,-2.4453 0.44541,-1.02307 0.96979,-1.80681 1.16528,-1.74165 0.1955,0.0652 1.76017,3.5216 3.47706,7.68096 4.18156,10.13033 4.52058,11.01691 4.29791,11.23958 -0.10526,0.10525 -1.25944,-0.91716 -2.56485,-2.27203 -2.15029,-2.23176 -2.56851,-2.92308 -4.44754,-7.35184 -2.07406,-4.88843 -2.07406,-4.88843 -2.75595,-3.55929 -0.57647,1.12365 -3.78188,8.58276 -3.78188,8.80057 0,0.0397 1.3224,0.17388 2.93866,0.29812 1.61625,0.12423 3.48157,0.4077 4.14513,0.62993 1.22245,0.40939 3.65658,2.03106 3.4135,2.27414 -0.0728,0.0728 -0.95807,-0.18134 -1.96724,-0.56479 -1.40166,-0.5326 -2.70371,-0.69719 -5.51522,-0.69719 -4.26275,0 -4.24829,-0.01 -5.51472,3.79566 -0.74069,2.22578 -0.71638,4.67101 0.0464,4.67101 0.18524,0 0.3368,0.15875 0.3368,0.35278 0,0.20594 -1.18088,0.35277 -2.83708,0.35277 -2.83708,0 -2.83708,0 -1.42671,-1.34165 z
       m 17.85662,0.62407 
       c 0.51552,-0.56964 0.63666,-1.22422 0.58757,-3.175 -0.034,-1.35158 0.0237,-2.45742 0.12835,-2.45742 0.91813,0 2.28236,1.30723 3.14637,3.01492 0.59873,1.18337 1.46428,2.28474 2.10039,2.67265 1.08199,0.6598 1.08199,0.6598 -2.76505,0.66111 -3.84622,0.001 -3.8469,0.001 -3.19763,-0.71626 z
       m 9.98163,-0.0987 
       c 1.21607,-1.29445 1.80829,-5.93789 1.81934,-14.26493 0.004,-2.87688 0.14185,-4.6743 0.35897,-4.6743 0.20776,0 0.35577,1.26896 0.36005,3.0868 0.0113,4.80029 0.63309,13.27444 1.05732,14.40973 0.21052,0.56337 0.73179,1.29858 1.15839,1.63382 0.75084,0.59003 0.675,0.60977 -2.37267,0.61736 -3.1483,0.008 -3.1483,0.008 -2.3814,-0.80848 z"/>
       <path id="hair"
       style="fill:#a11"
       d="M 58.237923,198.24232 
       c -3.52781,-3.53873 -5.74474,-7.72091 -6.83158,-12.88757 -0.67676,-3.21717 -0.67245,-5.38825 0.0186,-9.37293 0.68265,-3.93637 2.47107,-8.42746 4.59926,-11.54971 1.59263,-2.33653 6.89689,-7.67668 7.62509,-7.67668 0.23762,0 0.29258,-0.57542 0.15254,-1.59713 -0.24458,-1.7844 0.75229,-6.6798 1.87885,-9.22656 0.37079,-0.83825 1.51648,-2.43304 2.54597,-3.54399 1.40364,-1.51471 1.53669,-1.7342 0.53194,-0.87758 -2.79365,2.3818 -6.17267,3.70004 -15.20061,5.9301 -6.57302,1.62366 -10.66935,5.68792 -12.78511,12.68499 -0.98906,3.27096 -0.84724,9.07249 0.30786,12.59336 0.49332,1.50372 0.83766,2.73403 0.7652,2.73403 -0.36713,0 -1.68119,-3.19416 -2.28449,-5.55303 -0.80411,-3.14403 -0.89616,-7.91087 -0.20274,-10.49836 0.82304,-3.07115 2.98818,-6.87709 5.13166,-9.02059 2.30665,-2.30664 4.29475,-3.40243 9.32957,-5.14219 1.96819,-0.6801 4.40955,-1.70077 5.42526,-2.26814 2.09812,-1.17201 2.90547,-1.34016 2.16797,-0.45153 -0.4307,0.51896 -0.38881,0.55253 0.39778,0.31876 4.2103,-1.25131 7.5246,-4.05677 8.7966,-7.44606 0.63903,-1.70273 0.76035,-2.62514 0.64687,-4.91804 -0.0768,-1.55222 -0.36835,-3.34979 -0.64782,-3.99459 -0.48368,-1.11594 -0.50229,-1.0205 -0.38656,1.9825 0.10963,2.84474 0.0285,3.34496 -0.82526,5.08858 -1.33392,2.72421 -3.25429,5.15199 -5.30197,6.70289 -0.9655,0.73126 -1.89162,1.33037 -2.05804,1.33135 -0.16642,9.7e-4 0.61307,-0.98724 1.7322,-2.19603 4.82992,-5.2169 5.67256,-11.49746 2.47894,-18.47675 -0.79425,-1.73573 -0.88631,-1.80914 -2.54271,-2.02739 -0.94525,-0.12455 -3.41084,-0.21544 -5.47911,-0.20199 -4.36899,0.0284 -5.63802,-0.42587 -6.55374,-2.34614 -0.49832,-1.045 -0.52277,-1.46647 -0.16308,-2.81134 0.55788,-2.08585 0.53387,-2.83886 -0.12249,-3.84059 -0.3193,-0.48731 -0.51016,-1.43395 -0.46011,-2.28214 0.047,-0.79717 -0.10431,-1.63923 -0.33632,-1.87124 -0.58125,-0.58126 -0.52834,-1.90689 0.11534,-2.88926 0.69597,-1.06219 0.4193,-1.70773 -1.21825,-2.842562 -1.22638,-0.849876 -2.14114,-2.158779 -2.14114,-3.063664 0,-0.20222 1.35032,-1.814768 3.00071,-3.58344 4.71517,-5.053105 4.90451,-5.402069 5.11997,-9.436342 0.17134,-3.208293 0.29103,-3.647183 1.85208,-6.791771 0.9179,-1.849007 1.66979,-3.494812 1.67087,-3.657343 0.0144,-2.156848 2.26779,-5.287406 4.69863,-6.527527 1.31643,-0.671596 1.38131,-0.675223 1.12069,-0.06265 -0.15214,0.35762 -0.35591,1.126468 -0.4528,1.708552 -0.10393,0.624361 -0.94518,1.891624 -2.05157,3.090492 -3.51292,3.806551 -5.7847,8.992686 -5.78854,13.214351 -10e-4,1.402079 -0.21437,2.799188 -0.5148,3.375154 -0.55823,1.070202 -5.33949,6.753415 -6.51584,7.745022 -1.16255,0.979963 -0.90359,1.922905 0.87175,3.174278 1.85504,1.30756 2.21595,2.26405 1.44067,3.81814 -0.73981,1.48299 -0.27206,2.31333 1.44939,2.57289 3.34704,0.50468 3.97656,0.6837 3.97656,1.1308 0,0.35863 -0.6189,0.45599 -2.55764,0.40238 -2.54779,-0.0705 -2.55806,-0.067 -2.66926,0.89941 -0.0614,0.53358 0.0384,0.97014 0.22178,0.97014 0.72228,0 1.1917,1.99392 0.80083,3.4016 -0.87041,3.1347 -0.0448,4.88383 2.44907,5.18833 1.48595,0.18143 6.29807,-0.4699 12.64169,-1.71108 2.59208,-0.50716 4.78125,-0.85373 4.86482,-0.77015 0.0836,0.0836 -0.87662,0.60006 -2.13378,1.14774 -2.28575,0.99577 -2.28575,0.99577 -1.08133,2.32893 2.17777,2.41052 5.88373,10.64615 6.68647,14.85912 0.34705,1.82138 0.38265,3.0562 0.13284,4.60741 -0.4109,2.55143 -0.98401,3.78551 -1.00032,2.15398 -0.0107,-1.07329 -0.0107,-1.07329 -1.84978,0.52917 -5.06115,4.41002 -7.62566,8.48234 -7.95932,12.63907 -0.17819,2.21991 -0.17819,2.21991 3.31079,0.46891 1.91894,-0.96305 4.75898,-2.25142 6.3112,-2.86306 7.08518,-2.79181 12.39874,-6.56465 14.58113,-10.35319 0.78224,-1.35795 0.78224,-1.35795 -1.07861,0.27928 -2.03552,1.7909 -5.39042,3.59416 -7.32891,3.93929 -1.05668,0.18813 -0.92435,0.0611 0.91771,-0.88077 2.69854,-1.37983 5.88094,-4.66256 7.02256,-7.24395 2.22034,-5.02059 1.97686,-9.31184 -0.86181,-15.18895 -2.555,-5.28982 -2.66874,-5.76685 -2.66874,-11.19335 0,-4.83528 0,-4.83528 -0.79632,-4.63542 -1.00737,0.25284 -2.55507,-0.73021 -2.55507,-1.62289 0,-0.6237 0.0721,-0.63442 1.03531,-0.15391 0.91759,0.45775 1.18837,0.45265 2.38125,-0.0449 1.68806,-0.7041 3.4923,-2.41402 4.39441,-4.164693 0.38148,-0.7403 0.80413,-1.289039 0.93923,-1.219419 0.1351,0.06962 1.03907,0.488118 2.00883,0.929997 0.96976,0.441879 2.28623,1.051615 2.9255,1.354965 1.43722,0.68201 3.961507,0.44602 6.301587,-0.589105 0.9033,-0.399573 1.57814,-0.781604 1.49965,-0.848957 -0.0785,-0.06735 -1.09521,-0.01134 -2.25938,0.124481 -2.219097,0.258892 -4.951337,-0.186051 -6.526387,-1.06282 -0.82917,-0.461568 -0.69197,-0.513418 2.29306,-0.866563 1.74625,-0.20659 3.492497,-0.565071 3.880547,-0.796622 0.58231,-0.347462 0.12014,-0.427375 -2.645827,-0.457484 -4.49872,-0.04897 -7.06403,-0.440599 -7.45431,-1.137999 -0.17337,-0.309784 -1.22613,-0.827441 -2.33948,-1.150349 -10.65532,-3.090399 -19.78527,-11.807716 -23.41643,-22.358103 -1.39956,-4.066432 -0.81996,-5.101852 4.3174,-7.712773 6.79575,-3.453751 17.40028,-3.935971 24.92504,-1.133418 4.39487,1.636841 8.546817,4.168201 11.463807,6.989242 2.12246,2.052644 1.74784,2.306607 -2.40757,1.632115 -3.77547,-0.612823 -8.473487,-0.67729 -8.817297,-0.120993 -0.17386,0.281324 0.34572,0.324403 1.83205,0.151896 1.517,-0.176067 3.070157,-0.03795 5.777567,0.513788 6.10135,1.243375 7.45896,1.63172 10.31278,2.949973 3.42753,1.583264 5.77256,2.249486 8.91338,2.532288 2.93755,0.264499 6.98242,-0.479983 8.93156,-1.643907 1.58514,-0.946564 3.23928,-2.433611 3.23928,-2.91207 0,-0.194028 -0.43656,0.05674 -0.97014,0.557257 -3.15786,2.96222 -9.56449,4.23279 -14.74255,2.92376 -2.41955,-0.611672 -6.62241,-2.298171 -6.36605,-2.554533 0.0952,-0.09519 1.3647,-0.220352 2.82113,-0.278141 9.62106,-0.381748 16.45266,-7.030204 16.42795,-15.987527 -0.0132,-4.788414 -2.01857,-9.186118 -5.92844,-13.00095 -2.6476,-2.583242 -6.23352,-4.501904 -9.57548,-5.123407 -1.17014,-0.217611 -2.12753,-0.500905 -2.12753,-0.629541 0,-0.521831 2.08834,-1.130533 4.50843,-1.314101 2.86746,-0.217501 9.11847,0.331917 15.24712,1.34011 15.09621,2.483399 31.41997,11.445906 41.3775,22.718192 5.24095,5.932942 10.51411,14.68898 12.87568,21.379955 1.28273,3.634352 2.2032,6.681484 2.01831,6.681484 -0.0742,0 -0.83976,-1.487901 -1.70121,-3.306447 -2.91241,-6.148144 -7.1003,-11.175135 -10.87813,-13.05771 -2.31778,-1.154996 -3.29752,-1.168729 -4.02632,-0.05644 -0.91782,1.400757 0.0491,3.882542 3.57994,9.188651 6.26838,9.420064 10.27929,19.890948 11.82411,30.868058 0.73297,5.20827 0.583,13.8303 -0.32598,18.74139 -0.41749,2.25562 -0.92426,4.47812 -1.12617,4.93889 -0.34082,0.77777 -0.35536,0.76028 -0.20303,-0.24422 0.7925,-5.22617 0.97785,-7.80433 0.77964,-10.8448 -0.42132,-6.46281 -2.46801,-13.83364 -5.25949,-18.94126 -1.71777,-3.14302 -5.08242,-6.70278 -6.33541,-6.70278 -0.88329,0 -2.08109,1.07734 -2.54945,2.29306 -0.19631,0.50955 -0.50712,-0.37246 -1.11884,-3.175005 -2.70307,-12.383902 -7.86646,-23.766817 -15.31544,-33.763575 -5.10592,-6.852293 -11.76339,-13.293812 -17.97127,-17.38834 -3.95702,-2.609927 -8.07528,-4.919554 -8.32562,-4.66922 -0.0977,0.09769 1.06092,0.845012 2.57469,1.660707 3.29105,1.773378 8.44741,5.418209 12.13608,8.578529 9.6021,8.226726 18.77158,22.34037 23.23731,35.766831 5.61592,16.884553 5.63066,31.587403 0.0466,46.451453 -3.13943,8.35669 -6.83394,14.0598 -13.41959,20.71544 -2.16717,2.19019 -3.89304,4.23749 -3.98713,4.7297 -0.16591,0.86787 -0.16591,0.86787 1.10604,-0.14667 2.03689,-1.6247 6.49271,-6.02937 8.2307,-8.13623 6.40951,-7.76985 11.07136,-18.69795 12.79187,-29.98612 0.41508,-2.72327 0.53719,-5.64268 0.46115,-11.02465 -0.0569,-4.02627 0.0133,-7.32034 0.15606,-7.32014 0.34486,4.6e-4 2.27237,3.84691 3.31249,6.61025 2.00091,5.31594 3.16635,13.88162 2.82882,20.79122 -0.35417,7.25049 -1.86397,12.98931 -5.07397,19.28649 -2.36105,4.63175 -5.01028,8.27106 -8.81453,12.10874 -3.34765,3.37708 -5.46543,4.75876 -2.50693,1.63558 3.63188,-3.83405 6.07387,-8.37951 7.71445,-14.35947 0.77306,-2.81785 0.75293,-4.13771 -0.0265,-1.73429 -1.17863,3.63459 -4.67163,9.3982 -8.25696,13.62439 -3.82506,4.50876 -11.26114,9.99522 -16.34095,12.0566 -5.26023,2.1346 -12.31518,3.38239 -18.85447,3.33475 -3.58275,-0.0261 -3.59716,-0.0112 1.65803,-1.71249 4.02722,-1.30373 10.58703,-4.331 13.10911,-6.04969 2.6167,-1.78318 4.75383,-3.65371 6.54548,-5.72897 2.21825,-2.56939 1.16012,-2.4171 -2.22251,0.31987 -2.36507,1.91365 -6.20469,4.37571 -6.82397,4.37571 -0.13522,0 0.54717,-0.91281 1.51644,-2.02847 2.55512,-2.94104 4.15832,-5.80143 5.38642,-9.61032 1.01053,-3.13415 1.07121,-3.62049 0.92458,-7.41122 -0.11604,-3.00015 -0.35036,-4.5514 -0.89951,-5.95514 -0.7426,-1.8982 -0.7426,-1.8982 0.16045,-1.05833 2.45988,2.28776 4.17782,6.25924 4.5946,10.62164 0.24509,2.56545 0.24509,2.56545 0.76045,0.97795 0.32866,-1.01242 0.52275,-3.12103 0.53577,-5.82084 0.0178,-3.68316 -0.10215,-4.60012 -0.92266,-7.05556 -1.96433,-5.87836 -6.70986,-11.72382 -12.13366,-14.94604 -1.33761,-0.79466 -4.5172,-2.23178 -7.06574,-3.19359 -5.69165,-2.14802 -7.55916,-3.08076 -9.94658,-4.96791 -3.33582,-2.63681 -5.14827,-6.69978 -4.32263,-9.69002 0.48183,-1.74503 0.28423,-1.93848 -0.88322,-0.86471 -0.81919,0.75346 -0.88399,0.76832 -0.55074,0.12628 0.96934,-1.8675 6.03699,-5.42917 7.74376,-5.4425 0.68774,-0.005 0.52822,-0.45624 -0.59748,-1.68872 -1.18818,-1.300894 -2.14264,-1.422144 -4.81451,-0.6116 -2.12603,0.64495 -2.08686,0.64421 -1.57671,0.0295 0.70692,-0.851792 3.55761,-1.613788 5.99321,-1.602001 2.08746,0.0101 2.252,0.06149 1.65177,0.515891 -0.6291,0.476264 -0.63359,0.555101 -0.0796,1.40056 0.32285,0.49273 1.20995,1.30813 1.97132,1.81198 1.38432,0.9161 1.38432,0.9161 -0.08,2.03298 -0.80538,0.61428 -1.77954,1.67017 -2.1648,2.34643 -0.70048,1.22955 -0.70048,1.22955 0.27697,0.27837 1.46702,-1.42758 7.89072,-2.49482 11.92344,-1.98095 2.65349,0.33811 6.10346,2.09347 6.99801,3.5606 0.87039,1.42751 0.86877,1.84353 -0.0106,2.72292 -0.70555,0.70556 -0.70555,0.70556 1.41111,0.70556 2.15114,0 2.64555,0.38834 1.69922,1.33467 -0.67618,0.67617 -0.18004,0.77918 1.00007,0.20764 1.13769,-0.551 3.92511,-4.20773 3.51786,-4.61498 -0.12743,-0.12743 -0.41954,-0.0438 -0.64914,0.18577 -0.6704,0.6704
         -1.68407,0.48243 -2.02924,-0.3763 -0.17547,-0.43656 -0.32911,-0.59531 -0.34141,-0.35278 -0.0427,0.84126 -0.93622,0.42946 -3.934,-1.81301 -1.65725,-1.2397 -3.79665,-2.66462 -4.75424,-3.1665 -3.49899,-1.83387 -4.04707,-2.88783 -1.30009,-2.50013 6.16858,0.87062 10.25588,2.41394 10.70953,4.04379 0.13445,0.48302 0.2627,0.64009 0.28501,0.34905 0.0353,-0.46065 0.0828,-0.46247 0.36641,-0.014 0.28109,0.44439 0.41739,0.43228 0.99251,-0.0882 0.36668,-0.33184 0.92047,-0.60334 1.23066,-0.60334 0.78759,0 2.10474,1.7786 1.8992,2.56457 -0.14159,0.54146 -0.082,0.57762 0.3545,0.21532 1.4903,-1.23684 1.9011,-3.5617 1.03539,-5.85955 -0.27561,-0.73153 -0.59476,-1.895831 -0.70923,-2.587329 -0.13514,-0.81637 -0.65842,-1.682358 -1.49219,-2.469445 -0.70624,-0.666695 -1.19607,-0.974049 -1.08851,-0.683007 0.10756,0.291042 0.314,0.824827 0.45876,1.186191 0.23626,0.589795 0.14046,0.630376 -0.9363,0.3966 -1.22491,-0.265943 -6.66169,-2.885575 -7.85996,-3.787204 -0.36478,-0.27448 -0.7634,-1.115271 -0.88582,-1.868425 -0.19766,-1.216019 -0.44721,-1.495661 -2.22836,-2.497089 -1.10317,-0.620245 -2.05982,-0.965554 -2.12589,-0.767353 -0.23071,0.692146 -4.6509,-0.874377 -9.38834,-3.327249 -2.58958,-1.340788 -4.78715,-2.358978 -4.88348,-2.262646 -0.0963,0.09633 0.27616,0.411829 0.82777,0.701102 1.32936,0.697141 5.08312,4.23046 4.17792,3.932566 -0.88102,-0.289938 -3.72107,-0.93796 -9.14994,-2.08777 -4.50675,-0.95451 -7.23739,-2.093494 -12.17574,-5.078654 -1.63969,-0.991165 -3.03654,-1.746826 -3.10412,-1.679249 -0.0676,0.06758 0.83742,1.038829 2.01111,2.158336 1.17368,1.119506 2.13397,2.14607 2.13397,2.281253 0,0.135183 -1.56809,0.341319 -3.48464,0.458081 -2.37503,0.144693 -4.3043,0.498666 -6.05872,1.111624 -1.415747,0.494632 -3.343077,0.899331 -4.282957,0.899331 -2.10724,0 -6.96297,-1.250865 -10.77993,-2.776976 -2.3093,-0.923313 -2.45771,-0.632614 -0.17639,0.345505 4.98318,2.136542 15.300077,5.118513 16.598477,4.797578 0.32969,-0.08149 -0.0788,-0.271182 -0.90768,-0.421532 -0.828917,-0.15035 -1.580967,-0.392837 -1.671217,-0.53886 -0.30271,-0.489795 3.047967,-1.438117 6.882507,-1.947913 2.48912,-0.330926 6.19324,0.422767 8.61502,1.75294 1.17959,0.647889 3.7029,1.688946 5.60737,2.313459 1.90448,0.624514 3.88885,1.510784 4.40973,1.969491 0.94704,0.834011 0.94704,0.834011 -0.007,0.845159 -0.52475,0.0061 -1.98269,-0.362211 -3.23986,-0.81854 -2.13761,-0.775912 -2.41876,-0.799271 -4.33757,-0.360393 -1.1285,0.258113 -3.16306,0.710653 -4.52126,1.005644 -2.68173,0.582456 -7.08611,2.576532 -8.05461,3.646722 -0.59294,0.655183 -0.56864,0.655678 1.25555,0.02554 2.10687,-0.727786 5.04462,-0.868347 5.42099,-0.259374 0.15254,0.246814 -1.41529,2.01191 -3.99524,4.497916 -5.32238,5.12859 -6.93784,8.02361 -7.291177,13.06637 -0.13795,1.96879 0.278227,2.4212 0.626307,0.68083 0.31919,-1.59594 2.0857,-4.52142 3.59365,-5.95134 1.45911,-1.38362 1.40605,-1.94243 0.46888,4.93888 -0.6256,4.59362 -0.75874,8.97322 -0.33484,11.01511 0.58536,2.81969 2.25007,5.97062 4.29777,8.13478 1.74136,1.84039 1.74136,1.84039 0.66777,0.0887 -1.33608,-2.18002 -1.76584,-3.69195 -1.76836,-6.22134 -0.002,-1.98237 0.54428,-4.19778 1.03504,-4.19778 0.14434,0 0.4428,0.59531 0.66326,1.32292 0.62441,2.06081 2.88261,5.23814 6.42119,9.03474 3.84291,4.12311 5.09246,6.45106 5.06378,9.43392 -0.0305,3.17144 -1.47767,5.55884 -4.72691,7.79793 -0.83148,0.57299 -0.78005,0.57586 1.06668,0.0596 6.23956,-1.74412 8.29107,-7.28688 4.76619,-12.87732 -0.65402,-1.03727 -1.13015,-1.94492 -1.05807,-2.017 0.25775,-0.25775 4.2504,2.38747 5.33788,3.53646 4.39097,4.63933 3.45907,11.33908 -1.93719,13.92719 -2.54131,1.21884 -7.27273,1.52618 -10.28381,0.66802 -3.89263,-1.10941 -7.87617,-1.67147 -10.14217,-1.43101 -2.29036,0.24304 -5.838777,1.75277 -6.915157,2.94216 -0.38993,0.43087 0.21039,0.24242 1.79776,-0.56435 2.281757,-1.15968 2.508507,-1.20381 5.328247,-1.03692 2.7269,0.16139 3.24225,0.32497 6.95702,2.20825 3.81941,1.93634 4.14197,2.0351 6.7208,2.05775 2.70885,0.0238 2.70885,0.0238 1.23905,0.66473 -4.40383,1.92037 -10.56808,2.49958 -17.68555,1.66178 -4.726457,-0.55636 -12.144137,-0.47372 -15.149567,0.16877 -1.44427,0.30875 -2.70104,0.63646 -2.79282,0.72824 -0.0918,0.0918 1.32802,0.16775 3.15512,0.16884 3.87755,0.002 4.8116,0.21772 10.08029,2.32485 2.63987,1.05578 4.722877,1.64765 6.325257,1.79728 4.53253,0.42326 1.04163,0.86465 -9.379387,1.18594 -12.43582,0.38341 -16.52998,1.17438 -23.06784,4.45655 -5.30777,2.66464 -9.22594,6.55635 -11.25147,11.17549 -1.64507,3.75151 -2.14901,6.31616 -1.91574,9.74958 0.21215,3.12258 1.11382,5.67795 2.86217,8.11153 0.69791,0.97144 1.13102,1.76625 0.96246,1.76625 -0.16855,0 -1.31922,-1.0159 -2.55705,-2.25755 z 
       m 21.2231,-42.89886 
       c 7.61077,-2.60473 11.56344,-4.38501 13.47182,-6.06771 1.15449,-1.01795 1.15449,-1.01795 -0.25662,-0.18214 -0.77611,0.4597 -2.36361,1.20947 -3.52778,1.66616 -1.16416,0.4567 -4.33916,1.73706 -7.05555,2.84526 -2.71639,1.1082 -6.20889,2.44555 -7.76111,2.9719 -1.55223,0.52635 -2.88837,1.01996 -2.96922,1.09691 -0.51946,0.49448 1.76681,-0.16341 8.09846,-2.33038 z
       m 11.6277,-7.93665 
       c 0,-0.097 -0.0794,-0.17639 -0.17639,-0.17639 -0.097,0 -0.17639,0.0794 -0.17639,0.17639 0,0.097 0.0794,0.17639 0.17639,0.17639 0.097,0 0.17639,-0.0794 0.17639,-0.17639 z
       m 4.28285,-3.8243 
       c 3.15034,-3.62601 4.26751,-6.34941 4.29212,-10.4632 0.0144,-2.41101 -0.16403,-3.47999 -0.91066,-5.45513 -0.51073,-1.35108 -0.85468,-2.53043 -0.76434,-2.62077 0.0903,-0.0903 0.67825,0.20859 1.30645,0.6643 1.142187,0.82856 1.142187,0.82856 0.43747,0.027 -0.3876,-0.44085 -1.11519,-1.0138 -1.61687,-1.27323 -1.09014,-0.56373 -4.26102,-5.04696 -5.41162,-7.65134 -0.45169,-1.0224 -0.99837,-2.73203 -1.21485,-3.79918 -0.67112,-3.3083 -0.7357,-3.42308 -0.58576,-1.04098 0.19657,3.12286 1.37398,6.18491 3.96906,10.32223 2.89624,4.61744 3.44841,6.29713 3.44324,10.4743 -0.004,2.99147 -0.12682,3.63659 -1.14643,6.00697 -0.66357,1.54264 -2.13243,3.90819 -3.50484,5.64444 -2.86139,3.61995 -1.64792,3.02607 1.70703,-0.83543 z
       m 0.51101,-39.26905 
       c -0.50232,-0.73922 -0.9133,-1.20687 -0.9133,-1.03921 0,0.47609 1.47147,2.7384 1.6591,2.55077 0.0921,-0.0921 -0.24348,-0.77233 -0.7458,-1.51156 z"/>
       <path id="hair-highlights1"
       style="fill:#ffffff"
       d="M 82.592653,82.190704 
       c -0.0808,-0.07073 -0.54386,-0.317614 -1.02893,-0.548628 -0.83159,-0.396044 -0.84285,-0.388702 -0.19716,0.128604 0.56198,0.450234 1.71022,0.84359 1.22609,0.420024 z
       m -3.85115,-2.164452 
       c 0,-0.09701 -0.0794,-0.176389 -0.17639,-0.176389 -0.097,0 -0.17639,0.07937 -0.17639,0.176389 0,0.09701 0.0794,0.176389 0.17639,0.176389 0.097,0 0.17639,-0.07938 0.17639,-0.176389 z
       m -0.70556,-0.331958 
       c 0,-0.08556 -0.18328,-0.268841 -0.40728,-0.407284 -0.25234,-0.155956 -0.31153,-0.09677 -0.15557,0.155569 0.25133,0.406665 0.56285,0.545981 0.56285,0.251715 z
       m 61.971297,-6.782393 
       c -0.12935,-0.129352 -0.23519,-0.02352 -0.23519,0.235185 0,0.258703 0.10584,0.364537 0.23519,0.235185 0.12935,-0.129352 0.12935,-0.341019 0,-0.47037 z
       m 1.07395,-4.556636 
       c 0.18707,-2.398235 -0.17638,-5.502165 -0.9815,-8.382231 -0.65982,-2.360289 -0.76644,-1.107395 -0.14389,1.690832 0.42952,1.930635 0.56135,3.816909 0.46933,6.715606 -0.13681,4.309934 0.31931,4.293104 0.65606,-0.02421 z
       m -48.934137,2.645319 
       c -0.87312,-0.118096 -1.905,-0.337978 -2.29305,-0.488627 -0.68528,-0.266035 -0.68481,-0.258323 0.0163,0.268294 0.78716,0.591275 2.49582,0.907823 3.33512,0.617867 0.29104,-0.100547 -0.18521,-0.279437 -1.05834,-0.397534 z
       m -4.40972,-1.214765 
       c -0.77611,-0.255786 -1.80799,-0.46449 -2.29305,-0.463787 -0.57818,8.39e-4 -0.33516,0.157895 0.70555,0.45598 2.09098,0.598911 3.40058,0.605351 1.5875,0.0078 z"/>
       <path id="hair-highlights2"
       style="fill:#ffffff"
       d="M 138.00816,53.56792 
       c 0,-0.09701 -0.0794,-0.176389 -0.17639,-0.176389 -0.097,0 -0.17638,0.07937 -0.17638,0.176389 0,0.09701 0.0794,0.176389 0.17638,0.176389 0.097,0 0.17639,-0.07937 0.17639,-0.176389 z
       m -0.35277,-0.705556 
       c 0,-0.09701 -0.0794,-0.176389 -0.17639,-0.176389 -0.097,0 -0.17639,0.07937 -0.17639,0.176389 0,0.09701 0.0794,0.176389 0.17639,0.176389 0.097,0 0.17639,-0.07937 0.17639,-0.176389 z
       m 17.63888,-3.521835 
       c 0,-0.533722 -7.39913,-3.678887 -11.64166,-4.948546 -3.27531,-0.980198 -9.34219,-2.289341 -10.60935,-2.289341 -1.6643,0 -0.22099,0.440753 4.66844,1.425627 5.15569,1.038508 11.45868,3.0602 15.28071,4.901308 2.49233,1.20058 2.30186,1.125202 2.30186,0.910952 z
       m -25.4,-6.70872 
       c 0,-0.09701 -0.0794,-0.176389 -0.17638,-0.176389 -0.097,0 -0.17639,0.07938 -0.17639,0.176389 0,0.09701 0.0794,0.176389 0.17639,0.176389 0.097,0 0.17638,-0.07937 0.17638,-0.176389 z"/>
       <path id="sian-i"
       style="fill:#515"
       d="M 94.876 193.939 c -0.1427 -0.1427 -0.2615 -0.5902 -0.264 -0.9944 c -0.006 -1.0213 -1.3317 -5.1534 -1.9613 -6.1148 c -0.5198 -0.7937 -0.5198 -0.7937 2.5484 -0.7937 c 3.0682 0 3.0682 0 2.3014 0.8163 c -0.4724 0.5028 -1.0737 2.07 -1.5659 4.0812 c -0.4395 1.7957 -0.9158 3.1482 -1.0585 3.0055 z" />
       <path id="circumflex"
       style="fill:#119"
       d="M 109.4346 183.6785 c 0.002 -0.39 4.3886 -5.4422 5.0433 -5.8087 c 0.3852 -0.2156 1.2293 0.4885 3.2382 2.7013 c 2.1195 2.3346 2.593 3.0406 2.1524 3.2097 c -0.3428 0.1315 -1.4508 -0.3605 -2.8188 -1.2518 c -2.254 -1.4685 -2.254 -1.4685 -4.1416 -0.2646 c -2.0225 1.2901 -3.476 1.8818 -3.4736 1.4141 z" />
       <path id="dragon-nostril"
       style="fill:#a51f18"
       d="M 152.6484 100.8647 c -0.8775 -0.7079 -0.9787 -0.9337 -0.5923 -1.3212 c 0.3867 -0.3877 0.5819 -0.3255 1.1465 0.3655 c 0.5617 0.6874 0.9314 1.818 0.5923 1.8112 c -0.0485 -0.001 -0.5645 -0.386 -1.1465 -0.8556 z" />
       <path id="ear"
       style="fill:#511"
       d="M 84.0332 100.2986 c 0 -0.2009 0.2478 -0.7433 0.5506 -1.2055 c 0.5804 -0.8859 0.3946 -3.3681 -0.2522 -3.3681 c -0.4373 0 -3.8835 -3.2352 -3.6718 -3.447 c 0.2546 -0.2546 3.6251 2.3219 3.8691 2.9577 c 0.1187 0.3094 0.4163 0.4856 0.6613 0.3916 c 0.245 -0.094 1.0771 0.361 1.8491 1.0112 c 1.6798 1.4147 1.5109 2.0102 -0.9123 3.2171 c -1.7853 0.8891 -2.0937 0.9544 -2.0937 0.4431 z" />
       <path id="nostril"
       style="fill:#a51f18"
       d="M 52.6359 99.6101 c -0.291 -0.1686 -0.8335 -0.4026 -1.2055 -0.52 c -0.5269 -0.1662 -0.5826 -0.3072 -0.2521 -0.6376 c 0.3305 -0.3305 0.6297 -0.3084 1.3536 0.0998 c 0.5112 0.2882 0.995 0.7224 1.0753 0.965 c 0.1666 0.5036 -0.2016 0.5388 -0.9712 0.0929 z" />
       <path id="dragon-eye"
       style="fill:#000"
       d="M 137.7922 95.5199 c -0.6038 -0.2979 -1.2997 -0.9188 -1.5465 -1.3798 c -0.2467 -0.461 -0.9036 -1.0267 -1.4598 -1.257 c -1.3808 -0.572 -1.2813 -1.067 0.133 -0.6614 c 0.6293 0.1805 1.825 0.3282 2.6572 0.3282 c 0.8321 0 2.0238 0.2192 2.6482 0.4871 c 1.1616 0.4984 3.8498 3.0407 3.2152 3.0407 c -0.1933 0 -0.5022 -0.1383 -0.6866 -0.3072 c -0.6594 -0.6045 -2.1003 -0.7087 -2.7838 -0.2012 c -0.835 0.6199 -0.8198 0.6203 -2.177 -0.0493 z" />
       <path id="eye+brow"
       style="fill:#000"
       d="M 59.605103,91.16394
       c -1.3493,-0.56618 -1.73507,-1.083521 -0.80796,-1.083521 0.68374,0 1.24714,-1.105099 1.24714,-2.446252 0,-0.594839 0.15875,-1.081526 0.35277,-1.081526 0.19403,0 0.35278,0.657377 0.35278,1.460838 0,1.460838 0,1.460838 3.08681,1.273034 2.9427,-0.179037 3.04727,-0.160773 2.23988,0.391245 -0.46581,0.318478 -1.81519,0.907884 -2.99861,1.309793 -2.01327,0.683733 -2.23668,0.695081 -3.47281,0.176389 z
       m 7.14195,-7.281512
       c -2.60536,-1.330264 -3.99553,-1.417906 -6.08538,-0.383649 -1.91693,0.948679 -2.38128,0.931659 -2.38128,-0.08728 0,-2.179092 4.42736,-2.724478 7.66516,-0.944235 1.71854,0.944909 3.43024,2.381892 2.70826,2.273606 -0.17559,-0.02634 -1.03363,-0.412634 -1.90676,-0.85844 z"
 />
    </g>
</svg>
